<?xml version="1.0" encoding="UTF-8"?>
<svg id="Layer_1" xmlns="http://www.w3.org/2000/svg" version="1.1" viewBox="0 0 120.2 120">
  <!-- Generator: Adobe Illustrator 29.2.1, SVG Export Plug-In . SVG Version: 2.1.0 Build 116)  -->
  <defs>
    <style>
      .st0 {
        fill: #fff;
      }

      .st1 {
        opacity: .5;
      }
    </style>
  </defs>
  <g class="st1">
    <path class="st0" d="M103.8,19.2C95,9.7,83,3,70.2.6c-6.2-1.1-13.2-1.1-18.2,2.9-8.2,6.6-6.8,19.3-10.7,28.2-2.7,6.1-6.7,11.6-12.1,15.6-1.5,1.1-3,2.2-4.6,3.1-1.5.9-3,1.7-4.6,2.4-1.5.7-3.1,1.2-4.8,1.6-1.7.4-3.4.6-5.2.6-1.7,0-3.3,0-5-.3-.6,0-1.3-.2-2-.1-1.1.1-2.1.7-2.7,1.6-.2.3-.3.7-.3,1-.3,2.2-.2,5.6,0,7.8,1,11.9,5.7,23.6,13.1,33,7.4,9.4,17.7,16.4,29.1,20.1-8.2-2.9-15.9-7.4-21.9-13.7-7.3-7.6-13.3-19.3-10.6-30,1.7-6.7,7.1-11.5,12.7-15,6.3-3.9,13.3-6.8,20.5-8.6,14.9-3.7,31.1-3,44.5,5,6.8,4,12.8,9.7,16.2,16.8.8,1.7,1.5,3.4,2,5.2.5,1.8.9,3.6,1.2,5.4.2,1.8.3,3.6.3,5.5,0,1.8-.3,3.6-.7,5.4-.4,1.8-1,3.5-1.8,5.2-.4.9-.9,1.7-1.3,2.5-1,1.6-2.2,3.1-3.6,4.4-.2.1-.3.2-.4.4,0,0,1.8-.7,3.5-2.3,8-7.2,16.2-24.2,17.1-38.6.9-14.8-3.4-30.4-12.5-42.2-1.2-1.5-2.4-3-3.7-4.4h0Z"/>
  </g>
  <path class="st0" d="M101.4,101.8c-.4-.1-.7-.4-1-.7-.7-1-.5-2.2,0-3.2,1-2.3,2.9-4.3,4.6-6.2,1.9-2.1,3.9-4.1,5.7-6.3,6.5-8.2,9.5-19.6,7.5-29.9-1.2-6.6-4.8-12.7-10.2-16.8-4.5-3.5-10.1-5.2-15.7-5.2-5.5,0-10.9,2.5-15.3,5.6-1,.7-1.9,1.4-2.8,2.2-4.3,3.7-7.9,8.1-11.3,12.6-6.8,8.9-15.1,17.6-25.9,21.5-7.4,2.7-15.7,3-22.9-.2-7.2-3.1-12.9-9.6-13.9-17.4-1.6,20.5,10.4,44.6,30.8,55.5,1.7.9,3.4,1.8,5.1,2.6,16.4,7.3,40.4,5.9,49.2-12.1,2.7-5.4,3.5-11.6,3.8-17.6.3-6.1.2-12.2,1.1-18.2.4-2.4.9-4.9,1.7-7.2,1.1-3,2.6-6,5-8.2,4.1-3.7,10.1-4.1,14.1-.1,5,5,5.4,13,2.6,19.3-2.3,5.2-6.2,9.6-10.5,13.3-1.7,1.4-3.5,2.7-5.2,4.1-.9.8-4.2,3.6-5.3,5.1-1.3,1.7-2.4,3.7-2.9,5.9-.4,1.8-.2,3.7.8,5.2,2.9,4.4,9.3,2,12.4-.8,2.2-1.9,3-3.1,4-4.2,1-1.2,1.5-2,1.5-2-.4.6-1,1.1-1.5,1.5-.9.7-1.8,1.3-2.8,1.7-.8.3-1.8.5-2.5.2h0Z"/>
</svg>