<svg width="472" height="158" viewBox="0 0 472 158" fill="none" xmlns="http://www.w3.org/2000/svg">
<g opacity="0.5">
<path d="M103.833 19.2116C94.9731 9.67752 83.0392 2.97988 70.2251 0.64148C63.9985 -0.491634 56.9782 -0.455548 52.0503 3.52118C43.8683 10.1106 45.2176 22.8707 41.3215 31.7696C38.6374 37.9043 34.6041 43.3678 29.2144 47.3806C27.7353 48.4777 26.2273 49.5386 24.6544 50.5129C23.1898 51.4223 21.6673 52.2451 20.0872 52.9379C18.5504 53.6091 16.9559 54.1504 15.3181 54.5257C13.6153 54.9155 11.8693 55.1248 10.1232 55.1609C8.45654 55.197 6.80417 55.0743 5.15191 54.8505C4.50255 54.7639 3.83877 54.6557 3.18219 54.7423C2.11435 54.8794 1.06821 55.4207 0.527074 56.3806C0.346696 56.6981 0.231275 57.0518 0.187984 57.4127C-0.0934062 59.6211 -0.0212831 63.0133 0.159095 65.2362C1.12592 77.1592 5.84458 88.8295 13.2834 98.1903C20.7222 107.551 30.9894 114.639 42.3821 118.269C34.1785 115.389 26.4726 110.857 20.4624 104.57C13.1823 96.949 7.15775 85.3147 9.87786 74.5609C11.5734 67.8633 16.9342 63.1071 22.5908 59.5995C28.9257 55.6661 35.8957 52.7719 43.1325 50.9893C58.0533 47.3157 74.2224 48.0374 87.6498 55.9836C94.4176 59.982 100.428 65.662 103.848 72.8216C104.649 74.496 105.334 76.2353 105.875 78.0108C106.416 79.779 106.82 81.5834 107.073 83.4093C107.318 85.2209 107.419 87.0468 107.347 88.8728C107.275 90.6916 107.037 92.5031 106.618 94.2713C106.193 96.0685 105.587 97.815 104.807 99.4822C104.403 100.341 103.956 101.171 103.473 101.979C102.484 103.611 101.315 105.054 99.9155 106.346C99.764 106.483 99.6196 106.591 99.4753 106.728C99.4753 106.728 101.229 105.985 102.967 104.433C110.983 97.2737 119.129 80.2482 120.038 65.8208C120.969 51.0687 116.683 35.3927 107.571 23.643C106.387 22.1129 105.139 20.6261 103.826 19.2116H103.833Z" fill="white"/>
</g>
<path d="M101.395 101.763C101.027 101.619 100.695 101.38 100.428 101.027C99.6919 100.067 99.93 98.8255 100.37 97.7934C101.351 95.4623 103.285 93.4775 104.981 91.6371C106.9 89.5513 108.92 87.5593 110.688 85.3364C117.21 77.1159 120.176 65.7342 118.228 55.3919C116.987 48.8169 113.386 42.6894 108.054 38.6117C103.523 35.1474 98.0036 33.3864 92.3253 33.3936C86.8129 33.3936 81.4016 35.8763 76.9787 39.0158C76.0191 39.6943 75.0955 40.4232 74.2008 41.181C69.8934 44.8474 66.3147 49.2933 62.8875 53.768C56.0476 62.6886 47.7646 71.3493 36.9419 75.225C29.5825 77.8954 21.1985 78.1913 14.0194 75.0734C6.84039 71.9555 1.08997 65.4816 0.16643 57.7086C-1.41368 78.1841 10.5201 102.34 31.0039 113.253C32.6922 114.155 34.366 115.086 36.1121 115.866C52.5193 123.169 76.4881 121.719 85.3483 103.733C88.0323 98.2842 88.8043 92.1567 89.1146 86.1592C89.432 80.1039 89.2877 74.0053 90.1969 68.0005C90.5648 65.5682 91.1131 63.1505 91.9212 60.8265C92.9818 57.7808 94.5402 54.8361 96.9212 52.671C100.983 48.9757 106.979 48.5499 110.984 52.5627C116.027 57.6076 116.352 65.6043 113.545 71.8184C111.207 76.9932 107.333 81.403 103.047 85.0694C101.38 86.4984 99.5764 87.7398 97.8737 89.1327C96.9285 89.9049 93.689 92.7774 92.5418 94.2642C91.1925 96.0036 90.1103 97.9739 89.6774 100.125C89.3238 101.893 89.4464 103.842 90.4348 105.35C93.2992 109.702 99.728 107.371 102.802 104.585C104.952 102.636 105.846 101.46 106.756 100.348C107.722 99.1575 108.256 98.3275 108.256 98.3275C107.874 98.8833 107.246 99.4534 106.712 99.872C105.861 100.536 104.916 101.193 103.92 101.619C103.112 101.965 102.167 102.088 101.38 101.777L101.395 101.763Z" fill="white"/>
<path d="M369.725 122.195C367.95 120.708 365.245 119.965 361.601 119.965C359.934 119.965 357.994 120.088 355.793 120.34C354.249 120.513 352.604 120.881 352.019 121.019C351.334 121.185 350.713 122.238 350.591 123.48C350.454 124.829 350.67 126.035 351.377 126.027C351.478 126.027 351.651 125.984 351.68 125.977C354.487 125.169 357.748 124.685 360.367 124.685C362.517 124.685 364.04 125.039 364.942 125.746C365.844 126.453 366.291 127.536 366.291 128.994V132.79C363.744 131.83 361.377 131.354 359.184 131.354C356.017 131.354 353.563 132.025 351.825 133.367C350.079 134.71 349.206 136.63 349.206 139.12V140.043C349.206 141.559 349.523 142.858 350.158 143.941C350.793 145.023 351.68 145.868 352.835 146.459C353.982 147.051 355.245 147.484 356.616 147.759C357.986 148.026 359.523 148.163 361.233 148.163C363.167 148.163 365.151 148.004 367.186 147.686C368.124 147.542 369.899 147.16 369.949 147.145C371.392 146.813 372.402 145.572 372.388 144.323V129.001C372.388 125.955 371.5 123.682 369.725 122.195ZM366.291 143.897C364.581 144.338 363.051 144.561 361.688 144.561C357.626 144.561 355.591 143.046 355.591 140.014V139.755C355.591 138.391 356.053 137.344 356.991 136.601C357.921 135.865 359.285 135.496 361.089 135.496C363.427 135.496 365.165 135.85 366.298 136.557V143.89L366.291 143.897Z" fill="white"/>
<path d="M469.323 122.195C467.548 120.708 464.842 119.965 461.199 119.965C459.532 119.965 457.591 120.088 455.391 120.34C453.847 120.513 452.201 120.881 451.617 121.019C450.932 121.185 450.311 122.238 450.188 123.48C450.051 124.829 450.268 126.035 450.975 126.027C451.076 126.027 451.249 125.984 451.278 125.977C454.085 125.169 457.346 124.685 459.965 124.685C462.115 124.685 463.637 125.039 464.539 125.746C465.441 126.453 465.889 127.536 465.889 128.994V132.79C463.342 131.83 460.975 131.354 458.782 131.354C455.614 131.354 453.161 132.025 451.422 133.367C449.676 134.71 448.803 136.63 448.803 139.12V140.043C448.803 141.559 449.121 142.858 449.755 143.941C450.39 145.023 451.278 145.868 452.432 146.459C453.579 147.051 454.842 147.484 456.213 147.759C457.584 148.026 459.121 148.163 460.831 148.163C462.764 148.163 464.749 148.004 466.783 147.686C467.721 147.542 469.496 147.16 469.547 147.145C470.99 146.813 472 145.572 471.985 144.323V129.001C471.985 125.955 471.098 123.682 469.323 122.195ZM465.889 143.897C464.179 144.338 462.649 144.561 461.285 144.561C457.223 144.561 455.189 143.046 455.189 140.014V139.755C455.189 138.391 455.65 137.344 456.588 136.601C457.519 135.865 458.883 135.496 460.687 135.496C463.024 135.496 464.763 135.85 465.896 136.557V143.89L465.889 143.897Z" fill="white"/>
<path d="M442.295 146.791V130.249C442.295 126.966 441.422 124.403 439.669 122.577C437.915 120.744 435.224 119.828 431.602 119.828C428.716 119.828 425.736 120.456 422.641 121.719C420.852 120.456 418.333 119.828 415.094 119.828C413.088 119.828 410.981 120.102 408.781 120.658C406.962 121.12 405.75 121.495 404.473 122.13C403.052 122.83 403.131 124.302 403.131 124.302V146.929C403.131 147.636 404.488 148.213 406.169 148.213C407.85 148.213 409.206 147.643 409.206 146.929V126.063C409.798 125.76 410.628 125.479 411.695 125.226C412.763 124.966 413.716 124.836 414.553 124.836C416.291 124.836 417.576 125.197 418.406 125.919C419.235 126.648 419.654 127.658 419.654 128.958V146.517C419.654 146.517 419.654 146.777 419.654 146.929C419.654 147.636 421.01 148.213 422.691 148.213C424.372 148.213 425.729 147.643 425.729 146.929C425.729 146.82 425.729 146.575 425.729 146.575V126.525C426.342 126.107 427.172 125.717 428.24 125.371C429.3 125.017 430.246 124.836 431.061 124.836C432.8 124.836 434.098 125.363 434.95 126.41C435.801 127.456 436.227 128.921 436.227 130.791V146.589C436.227 146.589 436.227 146.784 436.227 146.929C436.227 147.636 437.583 148.213 439.264 148.213C440.946 148.213 442.302 147.643 442.302 146.929C442.302 146.864 442.302 146.784 442.302 146.784L442.295 146.791Z" fill="white"/>
<path d="M331.954 120.535C329.566 120.535 327.3 121.12 325.201 122.282C325.201 122.282 325.201 112.639 325.201 111.918C325.201 111.196 323.614 110.518 321.766 110.518C319.919 110.518 318.332 111.109 318.332 111.896V146.712C318.332 147.513 319.869 148.163 321.766 148.163C323.664 148.163 325.201 147.521 325.201 146.719C325.201 146.712 325.201 126.533 325.201 126.533C326.889 125.659 328.577 125.255 330.15 125.255C332.769 125.255 334.047 126.655 334.047 129.391V146.698C334.047 146.698 334.047 146.727 334.047 146.734C334.047 147.535 335.576 148.17 337.474 148.17C339.371 148.17 340.908 147.521 340.908 146.719V129.853C340.908 127.06 340.151 124.786 338.693 123.097C337.236 121.408 334.97 120.535 331.94 120.535H331.954Z" fill="white"/>
<path d="M397.886 123.134C397.886 121.603 397.533 120.413 396.638 120.333C395.743 120.254 394.942 120.182 393.983 120.182C391.378 120.182 388.362 121.17 386.998 122.975V121.56C386.998 121.091 386.731 120.658 385.981 120.658C385.974 120.658 384.011 120.658 383.997 120.658C382.352 120.658 381.017 121.885 380.988 123.401V145.817C380.988 145.817 380.988 147.023 380.988 147.109C380.988 147.99 382.698 148.336 383.997 148.336C385.065 148.336 387.006 148.062 387.006 147.131C387.006 146.979 387.006 146.265 387.006 146.265V129.196C387.669 127.89 389.3 126.352 391.364 125.739C393.052 125.241 395.087 125.27 396.313 125.638C397.222 125.905 397.901 124.721 397.901 123.141L397.886 123.134Z" fill="white"/>
<path d="M309.457 128.156C308.981 126.684 308.332 125.464 307.509 124.505C306.687 123.537 305.684 122.744 304.493 122.116C303.31 121.488 302.047 121.04 300.705 120.766C299.371 120.499 297.913 120.362 296.347 120.362C294.623 120.362 292.819 120.521 290.929 120.824C289.962 120.983 288.238 121.387 288.238 121.387C286.961 121.733 286.095 122.707 286.095 123.92V156.809C286.095 157.603 287.617 158 289.074 158C290.676 158 292.047 157.531 292.047 156.809C292.047 156.246 292.047 155.582 292.047 155.568V147.08C294.464 147.622 296.665 147.896 298.649 147.896C302.422 147.896 305.287 146.669 307.235 144.229C309.19 141.783 310.164 138.318 310.164 133.822V133.173C310.164 131.296 309.926 129.629 309.45 128.156H309.457ZM303.967 133.815C303.967 140.159 301.607 143.327 296.874 143.327C295.092 143.327 293.49 143.075 292.062 142.569V142.541C292.062 142.541 292.062 142.541 292.054 142.541V125.623C293.461 125.197 294.875 124.974 296.297 124.974C297.466 124.974 298.512 125.147 299.443 125.486C300.373 125.825 301.189 126.331 301.881 127.009C303.267 128.359 303.959 130.444 303.959 133.259V133.822L303.967 133.815Z" fill="white"/>
<path d="M420.253 46.0167C420.253 42.7761 419.503 40.2645 417.605 40.0841C415.707 39.9036 414.012 39.7593 411.992 39.7593C406.479 39.7593 400.094 41.8451 397.208 45.6702V42.6751C397.201 41.6863 396.645 40.7697 395.058 40.7697C395.036 40.7697 390.967 40.7697 390.967 40.7697C390.931 40.7697 390.895 40.7697 390.859 40.7697C387.374 40.7697 384.552 43.3607 384.502 46.5724V94.0044C384.502 94.0549 384.502 96.5521 384.502 96.747C384.502 98.6018 388.11 99.338 390.866 99.338C393.131 99.338 397.222 98.7606 397.222 96.7903C397.222 96.4727 397.222 94.9499 397.222 94.9499V58.8274C398.622 56.0631 402.078 52.8081 406.436 51.509C410.007 50.4481 414.315 50.5203 416.912 51.2925C418.831 51.8627 420.267 49.3583 420.267 46.0022L420.253 46.0167Z" fill="white"/>
<path d="M192.428 20.1283C188.445 20.1283 185.79 21.2831 185.776 22.8709C185.776 22.8709 185.776 24.0329 185.776 24.0473V53.2484H154.289V22.8637C154.289 21.081 151.15 20.1211 147.629 20.1211C144.368 20.1211 140.97 20.9872 140.97 22.8637V96.7254C140.97 98.5947 144.469 99.4391 147.629 99.4391C150.79 99.4391 154.289 98.6019 154.289 96.711V63.7352H185.776V96.7037C185.776 98.5081 189.037 99.4391 192.435 99.4391C195.834 99.4391 199.095 98.4864 199.095 96.711V22.8637C199.095 21.1604 196.173 20.1211 192.435 20.1211L192.428 20.1283Z" fill="white"/>
<path d="M466.365 44.5157C462.62 41.3834 456.899 39.8101 449.207 39.8101C445.679 39.8101 441.595 40.0699 436.934 40.604C433.673 40.972 430.196 41.7443 428.969 42.0402C427.519 42.3866 426.213 44.6168 425.953 47.2366C425.664 50.0875 426.119 52.628 427.612 52.6207C427.822 52.6207 428.197 52.5269 428.255 52.5125C434.178 50.802 441.069 49.7771 446.595 49.7771C451.127 49.7771 454.344 50.5205 456.249 52.0217C458.154 53.5229 459.106 55.8108 459.106 58.8853V66.9038C453.724 64.8757 448.724 63.8653 444.106 63.8653C437.425 63.8653 432.245 65.2871 428.558 68.1235C424.871 70.9527 423.031 75.0088 423.031 80.2774V82.2188C423.031 85.4233 423.702 88.1659 425.037 90.4538C426.379 92.7416 428.255 94.5171 430.686 95.7729C433.118 97.0287 435.78 97.9453 438.673 98.5083C441.574 99.0712 444.821 99.3599 448.428 99.3599C452.512 99.3599 456.704 99.0279 460.997 98.3567C462.974 98.0463 466.733 97.2452 466.841 97.2164C469.886 96.5163 472.029 93.8892 472 91.2549V58.8926C472 52.4547 470.124 47.6625 466.379 44.5229L466.365 44.5157ZM459.106 90.3527C455.499 91.2838 452.259 91.7529 449.388 91.7529C440.802 91.7529 436.509 88.5484 436.509 82.1467V81.6054C436.509 78.7257 437.49 76.51 439.46 74.951C441.422 73.3921 444.308 72.6126 448.111 72.6126C453.053 72.6126 456.718 73.3632 459.106 74.8572V90.3527Z" fill="white"/>
<path d="M251.376 39.8892C248.338 39.8892 245.063 40.8491 244.954 42.841C244.926 43.3102 244.868 44.4649 244.868 44.4649C243.951 62.0029 240.358 76.1705 233.778 87.4655C233.778 87.4655 228.655 79.5193 224.182 63.6052C221.577 54.331 220.827 42.8049 220.827 42.7977C220.827 40.3655 217.328 39.8892 214.24 39.8892C211.606 39.8892 207.53 40.7913 207.595 42.8338C207.674 45.3238 208.944 53.9845 210.214 59.347C211.512 64.8177 212.782 69.5594 214.189 73.5434C215.596 77.5273 217.154 81.3164 218.879 84.9106C220.596 88.512 222.068 91.334 223.295 93.3765C224.521 95.419 225.668 97.1583 226.736 98.6018C223.655 103.127 217.4 110.799 212.003 117.049C212.003 117.049 211.548 117.533 211.585 118.088C211.678 119.741 214.766 121.091 218.691 121.091C221.924 121.091 224.579 120.044 226.166 118.096C230.099 113.08 232.487 109.969 234.55 107.19C236.873 104.073 239.803 99.6988 243.324 94.0766C246.852 88.4543 249.464 83.4744 251.167 79.1368C252.869 74.792 254.392 69.61 255.734 63.5907C257.076 57.5715 257.747 51.4152 257.747 45.1361V42.8988C257.747 40.7625 254.897 39.9036 251.383 39.9036L251.376 39.8892Z" fill="white"/>
<path d="M369.697 46.9552C365.238 42.1918 358.73 39.8101 350.158 39.8101C341.586 39.8101 335.158 42.2567 330.858 47.1356C326.557 52.0217 324.407 59.1885 324.407 68.6287V70.4474C324.407 80.5444 326.947 87.8916 332.034 92.489C337.113 97.0937 344.775 99.3888 355.021 99.3888C356.717 99.3888 358.412 99.3382 360.108 99.2011C361.608 99.0856 363.109 98.9052 364.595 98.631C365.916 98.3856 367.222 98.0752 368.499 97.6494C369.646 97.2741 370.764 96.8122 371.832 96.242C372.33 95.975 372.821 95.6863 373.29 95.3687C374.127 94.8058 374.848 94.1779 375.332 93.2757C375.808 92.388 376.053 91.3848 376.212 90.4032C376.63 87.7112 376.082 85.3945 374.942 85.214C374.733 85.1779 374.538 85.1851 374.271 85.3151C368.939 88.1154 363.787 89.4073 356.796 89.4073C350.259 89.4073 345.555 88.2381 342.69 85.9069C339.826 83.5757 338.231 79.433 337.907 73.4715H373.117C374.884 73.4715 376.385 72.0641 376.385 70.2959V68.8524C376.385 59.008 374.156 51.6969 369.697 46.9407V46.9552ZM337.784 64.7313C338.109 59.6865 339.328 55.9335 341.442 53.4724C343.556 51.0113 346.702 49.7771 350.887 49.7771C359.054 49.7771 363.253 54.7643 363.499 64.7313H337.784Z" fill="white"/>
<path d="M311.189 48.9616C309.414 46.883 307.257 45.1725 304.702 43.8157C302.148 42.466 299.436 41.4989 296.557 40.9143C293.678 40.3297 290.554 40.041 287.17 40.041C283.461 40.041 279.565 40.373 275.496 41.037C273.418 41.3762 269.709 42.2423 269.709 42.2423C266.967 42.9929 265.099 45.0859 265.099 47.6913V118.507C265.099 120.211 268.381 121.077 271.513 121.077C274.969 121.077 277.92 120.059 277.92 118.507C277.92 117.295 277.92 115.859 277.92 115.83V97.5628C283.122 98.732 287.855 99.3166 292.126 99.3166C300.251 99.3166 306.42 96.6823 310.619 91.4209C314.825 86.1595 316.925 78.6896 316.925 69.0112V67.6183C316.925 63.5838 316.413 59.9896 315.388 56.8212C314.364 53.6528 312.964 51.0329 311.196 48.9544L311.189 48.9616ZM303.49 68.9535C303.49 82.5869 298.411 89.4073 288.252 89.4073C284.421 89.4073 280.972 88.8587 277.913 87.7762V51.3505C280.936 50.4267 283.981 49.9576 287.04 49.9576C292.04 49.9576 296.03 51.4082 299.017 54.3168C301.997 57.2182 303.49 61.6929 303.49 67.7482V68.9535Z" fill="white"/>
</svg>
