<?xml version="1.0" encoding="UTF-8"?>
<svg id="Layer_1" xmlns="http://www.w3.org/2000/svg" version="1.1" viewBox="0 0 184.6 180.1">
  <!-- Generator: Adobe Illustrator 29.2.1, SVG Export Plug-In . SVG Version: 2.1.0 Build 116)  -->
  <defs>
    <style>
      .st0, .st1 {
        fill: #fff;
      }

      .st0, .st2 {
        opacity: .2;
      }
    </style>
  </defs>
  <g class="st2">
    <path class="st1" d="M149.1,37c-11.5-12.4-27-21.1-43.7-24.1-8.1-1.5-17.2-1.4-23.6,3.7-10.6,8.6-8.9,25.2-13.9,36.7-3.5,8-8.7,15.1-15.7,20.3-1.9,1.4-3.9,2.8-5.9,4.1-1.9,1.2-3.9,2.3-5.9,3.2-2,.9-4.1,1.6-6.2,2.1-2.2.5-4.5.8-6.8.8s-4.3,0-6.5-.4c-.8,0-1.7-.3-2.6,0-1.4.2-2.7.9-3.5,2.1-.2.4-.4.9-.4,1.3-.4,2.9-.3,7.3,0,10.2,1.3,15.5,7.4,30.7,17.1,42.8,9.7,12.2,23,21.4,37.8,26.1-10.7-3.7-20.7-9.6-28.5-17.8-9.5-9.9-17.3-25-13.8-39,2.2-8.7,9.2-14.9,16.5-19.5,8.2-5.1,17.3-8.9,26.7-11.2,19.4-4.8,40.4-3.8,57.9,6.5,8.8,5.2,16.6,12.6,21.1,21.9,1,2.2,1.9,4.4,2.6,6.7.7,2.3,1.2,4.6,1.6,7,.3,2.4.4,4.7.4,7.1s-.4,4.7-.9,7c-.6,2.3-1.3,4.6-2.4,6.8-.5,1.1-1.1,2.2-1.7,3.2-1.3,2.1-2.8,4-4.6,5.7-.2.2-.4.3-.6.5,0,0,2.3-1,4.5-3,10.4-9.3,21-31.4,22.2-50.2,1.2-19.2-4.4-39.6-16.2-54.8-1.5-2-3.2-3.9-4.9-5.8h-.1Z"/>
  </g>
  <path class="st0" d="M146,144.4c-.5-.2-.9-.5-1.3-1-1-1.2-.6-2.9,0-4.2,1.3-3,3.8-5.6,6-8,2.5-2.7,5.1-5.3,7.4-8.2,8.5-10.7,12.3-25.5,9.8-38.9-1.6-8.5-6.3-16.5-13.2-21.8-5.9-4.5-13.1-6.8-20.5-6.8s-14.2,3.2-20,7.3c-1.2.9-2.4,1.8-3.6,2.8-5.6,4.8-10.3,10.5-14.7,16.4-8.9,11.6-19.7,22.9-33.7,27.9-9.6,3.5-20.5,3.9-29.8-.2s-16.8-12.5-18-22.6c-2.1,26.6,13.5,58,40.1,72.2,2.2,1.2,4.4,2.4,6.6,3.4,21.3,9.5,52.5,7.6,64-15.8,3.5-7.1,4.5-15.1,4.9-22.8.4-7.9.2-15.8,1.4-23.6.5-3.2,1.2-6.3,2.2-9.3,1.4-4,3.4-7.8,6.5-10.6,5.3-4.8,13.1-5.4,18.3,0,6.6,6.6,7,17,3.3,25-3,6.7-8.1,12.5-13.6,17.2-2.2,1.9-4.5,3.5-6.7,5.3-1.2,1-5.4,4.7-6.9,6.7-1.8,2.3-3.2,4.8-3.7,7.6-.5,2.3-.3,4.8,1,6.8,3.7,5.7,12.1,2.6,16.1-1,2.8-2.5,4-4.1,5.1-5.5,1.3-1.5,2-2.6,2-2.6-.5.7-1.3,1.5-2,2-1.1.9-2.3,1.7-3.6,2.3-1.1.4-2.3.6-3.3.2h-.1v-.2Z"/>
</svg>